<svg width="1001" height="300" viewBox="0 0 1001 300" fill="none" xmlns="http://www.w3.org/2000/svg">
<g clip-path="url(#clip0_5_118)" filter="url(#filter0_i_5_118)">
<path d="M0.274782 0.65951C0.109904 1.04423 0.0549449 68.3694 0.109904 150.314L0.274782 299.253L104.533 299.418L208.845 299.528V263.805V228.081H145.367H81.8894V114.041V-1.65403e-06H41.2195C9.17819 -1.65403e-06 0.43966 0.164876 0.274782 0.65951Z" fill="#E67C35"/>
<path d="M127.506 106.621V213.242H168.176H208.845V200.052V186.862H255.836H302.826V243.195V299.528H343.496H384.166V149.764V-1.65403e-06H343.496H302.826V57.7073V115.415H255.836H208.845V57.7073V-1.65403e-06H168.176H127.506V106.621Z" fill="#E67C35"/>
<path d="M564.037 24.292C570.137 33.4702 575.193 41.0546 575.303 41.1645C575.413 41.2745 575.523 33.8 575.523 24.5668V7.69432H564.257H552.99L564.037 24.292Z" fill="#E67C35"/>
<path d="M615.489 28.1941C605.212 39.9005 599.057 54.1899 598.177 68.4244L597.847 73.3707L621.26 108.27L644.728 143.169L648.3 144.103C664.788 148.445 685.618 145.093 697.709 136.189L699.907 134.595L700.182 139.157L700.457 143.719L714.361 143.883L728.211 143.993L728.101 115.909L727.936 87.825L709.91 77.4377L691.938 67.0504H685.618H679.297L679.407 81.1749L679.572 95.3544L689.08 95.5193L698.533 95.6292V100.795V105.962L694.906 108.27C686.772 113.381 678.418 115.689 669.13 115.25C654.181 114.59 643.079 107.391 636.704 94.2552C633.461 87.5502 632.417 82.6588 632.472 74.1951C632.472 66.3359 633.571 61.2796 636.539 55.1792C638.407 51.332 642.914 46.001 646.377 43.4179L648.41 41.9889L633.901 33.6351C625.932 29.0185 619.117 25.2813 618.732 25.3363C618.347 25.3363 616.863 26.6003 615.489 28.1941Z" fill="#E67C35"/>
<path d="M751.843 122.779V143.993L768.496 143.884L785.094 143.719V132.232V120.801L771.629 112.996C764.209 108.71 756.735 104.368 755.031 103.378L751.843 101.62V122.779Z" fill="#EC6B15"/>
<path d="M858.025 169.824C835.711 172.627 821.642 186.697 821.642 206.097C821.642 215.99 824.005 221.761 830.985 228.631C836.701 234.347 840.932 236.875 855.002 243.085C866.489 248.141 870.446 250.395 872.479 253.033C875.942 257.594 874.458 262.87 868.907 265.289C865.829 266.663 858.025 266.498 852.969 264.959C846.593 262.98 838.569 258.694 834.777 255.176L833.293 253.857L825.599 265.014L817.905 276.171L819.059 277.49C825.269 284.25 838.844 290.68 851.045 292.713C858.19 293.867 869.017 293.483 875.172 291.889C886.604 288.866 895.672 281.776 900.234 272.323C905.235 261.881 904.96 248.416 899.629 239.897C894.463 231.654 887.373 226.817 869.182 219.288C859.564 215.331 856.761 213.847 853.958 211.154C851.54 208.845 850.55 206.262 851.1 203.789C852.089 199.228 855.332 197.249 862.367 196.864C870.281 196.48 879.239 199.337 886.769 204.669L890.121 207.142L895.232 197.249C899.794 188.401 900.234 187.301 899.464 186.697C898.97 186.312 892.155 182.41 884.405 177.958L870.281 169.824L866.159 169.604C863.905 169.44 860.223 169.55 858.025 169.824Z" fill="#E67C35"/>
<path d="M701.831 199.887V228.356L723.375 260.507C735.191 278.204 745.193 292.823 745.468 293.043C746.512 293.758 757.394 293.538 762.561 292.658C782.126 289.471 795.811 277.709 800.867 259.628C802.076 255.341 802.076 254.736 802.296 213.352L802.461 171.473H787.622H772.728L772.618 212.253L772.453 253.088L771.024 256.11C767.562 263.475 759.923 267.157 749.7 266.388C740.632 265.673 734.586 261.332 732.388 253.967C731.618 251.329 731.509 246.108 731.509 211.209V171.473H716.67H701.831V199.887Z" fill="#E67C35"/>
<path d="M922.217 245.668V291.284H960.964H999.71V278.644V266.003H975.803H951.895V255.011V244.019H970.032H988.169V240.832V237.699L971.681 228.191C962.612 222.97 954.424 218.573 953.544 218.353C952.61 218.188 951.895 217.749 951.895 217.419C951.895 216.924 923.371 200.052 922.492 200.052C922.327 200.052 922.217 220.552 922.217 245.668Z" fill="#E67C35"/>
<path d="M656.489 6.32033C649.674 7.41951 641.595 10.0576 634.945 13.3002C629.119 16.213 618.402 23.9623 619.227 24.7317C619.446 24.9515 626.206 28.9086 634.176 33.5252L648.685 41.879L650.663 40.9447C666.821 33.1405 687.596 35.5037 702.6 46.7704L705.348 48.8039L706.832 46.5505C707.656 45.2865 711.284 39.6257 714.911 33.9099L721.561 23.6325L718.703 21.3242C709.91 14.3444 699.522 9.72781 686.662 7.08976C679.352 5.60586 663.469 5.22114 656.489 6.32033Z" fill="#626262"/>
<path d="M438.026 75.8439V143.993H482.543H527.06V129.429V114.865H499.58H472.101V61.2797V7.69432H455.063H438.026V75.8439Z" fill="#626262"/>
<path d="M542.998 75.8439V143.993H559.761H576.523V92.9912V41.934L565.147 24.8416L553.715 7.74928L548.384 7.69432H542.998V75.8439Z" fill="#626262"/>
<path d="M751.843 54.5197L751.898 101.4L768.166 110.743C777.125 115.854 784.654 120.141 784.874 120.251C785.149 120.361 785.369 113.766 785.369 105.577V90.6829H809.826H834.282V117.338V143.993H851.045H867.808V75.8439V7.69432H851.045H834.282V34.8992V62.104H809.826H785.369V34.8992V7.69432H768.606H751.843V54.5197Z" fill="#626262"/>
<path d="M884.021 8.40879C883.856 8.7935 883.801 15.2787 883.856 22.8081L884.021 36.548L904.52 36.7128L924.965 36.8228V90.4081V143.993H942.003H959.04V90.4081V36.8228H979.65H1000.26V22.2585V7.69432H942.277C895.947 7.69432 884.185 7.8592 884.021 8.40879Z" fill="#626262"/>
<path d="M691.993 66.7206C692.377 67.1053 727.661 87.3853 727.936 87.3853C728.101 87.3853 728.156 82.7687 728.101 77.053L727.936 66.7756L709.855 66.6107C699.907 66.5557 691.828 66.6107 691.993 66.7206Z" fill="#626262"/>
<path d="M597.628 79.691C598.837 99.5313 605.047 114.315 617.413 126.736C624.887 134.156 631.647 138.607 640.936 142.07L644.673 143.444L636.264 130.913C631.592 124.043 621.205 108.545 613.126 96.4536C604.992 84.3626 598.122 74.1951 597.847 73.9203C597.463 73.5356 597.408 75.4591 597.628 79.691Z" fill="#626262"/>
<path d="M612.522 169.879C598.672 171.693 585.811 177.903 576.523 187.356C564.487 199.502 558.607 215.111 559.211 233.028C559.816 250.065 565.751 264.354 576.743 275.511C588.394 287.382 602.959 293.263 621.315 293.428C639.891 293.648 654.95 287.767 666.931 275.676C679.682 262.815 685.398 247.427 684.628 227.861C684.024 211.648 678.198 197.909 667.371 187.136C663.304 183.124 656.874 178.453 652.092 176.035C647.915 173.891 638.298 170.978 632.911 170.209C626.701 169.275 618.127 169.165 612.522 169.879ZM629.669 197.579C644.563 201.096 653.961 214.067 654.016 231.104C654.016 243.69 648.52 254.901 639.397 261.057C633.736 264.794 628.954 266.223 621.865 266.223C613.126 266.168 606.916 263.75 600.486 257.759C596.528 254.022 592.626 247.097 591.032 240.997C589.659 235.666 589.659 225.773 591.087 220.936C594.495 208.955 603.124 200.217 614.17 197.524C618.018 196.589 625.602 196.589 629.669 197.579Z" fill="#626262"/>
<path d="M871.93 170.484C872.534 170.814 879.184 174.661 886.714 179.003C894.188 183.344 900.453 186.862 900.563 186.862C901.058 186.862 902.487 183.399 902.212 182.74C901.772 181.586 893.089 176.035 888.857 174.276C884.35 172.352 875.062 169.824 872.534 169.824C870.995 169.879 870.94 169.934 871.93 170.484Z" fill="#626262"/>
<path d="M438.026 231.654V291.834L453.03 291.724L467.979 291.559L468.143 268.037L468.253 244.569H489.688H511.122V268.201V291.834H525.961H540.8V231.654V171.473H525.961H511.122V195.38V219.288H489.688H468.253L468.143 195.49L467.979 171.748L453.03 171.583L438.026 171.473V231.654Z" fill="#626262"/>
<path d="M922.327 185.543L922.492 199.612L937.056 207.966L951.621 216.375L951.785 206.592L951.895 196.754L974.868 196.644L997.786 196.48V184.114V171.748L959.974 171.583L922.217 171.473L922.327 185.543Z" fill="#626262"/>
<path d="M955.248 218.408C955.743 218.848 988.114 237.424 988.388 237.424C988.553 237.424 988.718 233.082 988.718 227.806V218.188H971.846C962.613 218.188 955.138 218.298 955.248 218.408Z" fill="#626262"/>
<path d="M701.83 240.502C701.83 246.822 702.105 253.582 702.435 255.561C704.633 269.301 712.932 280.897 725.133 287.382C730.684 290.295 735.301 291.779 743.435 293.153C745.083 293.428 744.259 292.054 725.023 263.365C713.976 246.822 704.194 232.313 703.369 231.159L701.83 229.016V240.502Z" fill="#626262"/>
</g>
<defs>
<filter id="filter0_i_5_118" x="0" y="0" width="1000.26" height="303.528" filterUnits="userSpaceOnUse" color-interpolation-filters="sRGB">
<feFlood flood-opacity="0" result="BackgroundImageFix"/>
<feBlend mode="normal" in="SourceGraphic" in2="BackgroundImageFix" result="shape"/>
<feColorMatrix in="SourceAlpha" type="matrix" values="0 0 0 0 0 0 0 0 0 0 0 0 0 0 0 0 0 0 127 0" result="hardAlpha"/>
<feOffset dy="4"/>
<feGaussianBlur stdDeviation="2"/>
<feComposite in2="hardAlpha" operator="arithmetic" k2="-1" k3="1"/>
<feColorMatrix type="matrix" values="0 0 0 0 0 0 0 0 0 0 0 0 0 0 0 0 0 0 0.25 0"/>
<feBlend mode="normal" in2="shape" result="effect1_innerShadow_5_118"/>
</filter>
<clipPath id="clip0_5_118">
<rect width="1000.26" height="299.528" fill="white"/>
</clipPath>
</defs>
</svg>
